<svg id="图层_2" data-name="图层 2" xmlns="http://www.w3.org/2000/svg" viewBox="0 0 249.53 52.78"><defs><style>.cls-1{fill:#b72020;stroke:#b72020;stroke-miterlimit:10;stroke-width:6px;}</style></defs><title>Logo</title><path d="M40.26,41A17.23,17.23,0,0,1,46,28a19.26,19.26,0,0,1,13.74-5.41A18.78,18.78,0,0,1,73.21,28,17.37,17.37,0,0,1,78.87,41a18.07,18.07,0,0,1-5.6,13.42,18.85,18.85,0,0,1-13.72,5.48,18.81,18.81,0,0,1-13.66-5.52A18.06,18.06,0,0,1,40.26,41Zm33.52.22a13,13,0,0,0-4.17-9.76,14.38,14.38,0,0,0-10.28-4,13.72,13.72,0,0,0-9.94,4,13.08,13.08,0,0,0-4.13,9.69,12.76,12.76,0,0,0,4.25,9.71,14.67,14.67,0,0,0,10.4,4,13.4,13.4,0,0,0,9.76-4A13.06,13.06,0,0,0,73.78,41.2Z" transform="translate(-40.26 -14.9)"/><path d="M80.33,36h5l6.49,13.11L98.13,36h5L91.75,59.55Z" transform="translate(-40.26 -14.9)"/><path d="M126.86,48.28H107.52a7.58,7.58,0,0,0,2.87,5.1,8.19,8.19,0,0,0,4.88,1.6,8.43,8.43,0,0,0,6.81-3.38l3.49,2.64a12.63,12.63,0,0,1-10.52,5.09,11.39,11.39,0,0,1-8.47-3.47,11.76,11.76,0,0,1-3.41-8.6,11.56,11.56,0,0,1,3.45-8.34,11.7,11.7,0,0,1,16.81.06A12.6,12.6,0,0,1,126.86,48.28ZM108,44.46h13.85q-2.31-4.66-6.81-4.67A7.24,7.24,0,0,0,108,44.46Z" transform="translate(-40.26 -14.9)"/><path d="M135.72,36V40.7a14.56,14.56,0,0,1,3.12-4.06,6.07,6.07,0,0,1,4-1.25,8.68,8.68,0,0,1,2,.33l-1.46,4.78a12.21,12.21,0,0,0-1.81-.27,5.4,5.4,0,0,0-4.06,1.69,5.81,5.81,0,0,0-1.63,4.22V58.69h-4.78V36Z" transform="translate(-40.26 -14.9)"/><path d="M160.84,38.72l-3.18,2.8a16.14,16.14,0,0,0-2.15-1.33,4.63,4.63,0,0,0-2.14-.46c-1.94,0-2.91.72-2.91,2.15q0,1.53,3.69,3A14.53,14.53,0,0,1,159.47,48a5.91,5.91,0,0,1,1.62,4.18,6.57,6.57,0,0,1-2.33,5,7.9,7.9,0,0,1-5.5,2.13q-4.81,0-7.89-4.46l3.77-1.81A5.91,5.91,0,0,0,153.26,55a4.32,4.32,0,0,0,2.6-.81A2.31,2.31,0,0,0,157,52.29q0-1.89-3.9-3.41a15.47,15.47,0,0,1-5.4-3.07,5.29,5.29,0,0,1-1.5-3.83,6,6,0,0,1,2.13-4.71,7.79,7.79,0,0,1,5.34-1.88Q156.87,35.39,160.84,38.72Z" transform="translate(-40.26 -14.9)"/><path d="M186.57,48.28H167.23a7.62,7.62,0,0,0,2.87,5.1A8.19,8.19,0,0,0,175,55a8.43,8.43,0,0,0,6.81-3.38l3.49,2.64a12.63,12.63,0,0,1-10.52,5.09,11.41,11.41,0,0,1-8.47-3.47,11.75,11.75,0,0,1-3.4-8.6,11.59,11.59,0,0,1,3.44-8.34,11.7,11.7,0,0,1,16.81.06A12.6,12.6,0,0,1,186.57,48.28Zm-18.85-3.82h13.85q-2.31-4.66-6.81-4.67A7.24,7.24,0,0,0,167.72,44.46Z" transform="translate(-40.26 -14.9)"/><path d="M209.2,36H214V58.69H209.2v-4.5q-3.49,5.13-8.66,5.14a9.94,9.94,0,0,1-7.65-3.52,12.29,12.29,0,0,1-3.18-8.55A12,12,0,0,1,192.92,39a9.8,9.8,0,0,1,7.51-3.56,9.6,9.6,0,0,1,5.06,1.46,10.36,10.36,0,0,1,3.71,3.79Zm.66,11.41a7.26,7.26,0,0,0-2.23-5.32,7.51,7.51,0,0,0-10.63,0,7,7,0,0,0-2.26,5.16A7.52,7.52,0,0,0,197,52.73,7.17,7.17,0,0,0,202.29,55a7.61,7.61,0,0,0,7.57-7.55Z" transform="translate(-40.26 -14.9)"/><path class="cls-1" d="M248,24.89v5.42a23.89,23.89,0,0,0-10.41-2.78,14.43,14.43,0,0,0-10.28,3.94,12.77,12.77,0,0,0-4.18,9.68,12.69,12.69,0,0,0,4.28,9.76,15.21,15.21,0,0,0,10.7,3.91A20.26,20.26,0,0,0,248,51.88v5.47a21.66,21.66,0,0,1-10.3,2.53,19.43,19.43,0,0,1-13.91-5.51A17.72,17.72,0,0,1,218,41.09,17.46,17.46,0,0,1,223.65,28a19.06,19.06,0,0,1,13.67-5.43A27.52,27.52,0,0,1,248,24.89Z" transform="translate(-40.26 -14.9)"/><path class="cls-1" d="M256.12,22.28,282,48.89V23.69h4.78V60.32L260.9,33.83V58.69h-4.78Z" transform="translate(-40.26 -14.9)"/></svg>