<svg id="图层_2" data-name="图层 2" xmlns="http://www.w3.org/2000/svg" viewBox="0 0 273.75 48.7"><defs><style>.cls-1{fill:#b72020;stroke:#b72020;stroke-miterlimit:10;stroke-width:6px;}</style></defs><title>Logo 副本</title><path d="M60.25,59.71a19.06,19.06,0,0,1-10-2.58,17,17,0,0,1-6.62-7.55,25.8,25.8,0,0,1-2.35-11.22,26.52,26.52,0,0,1,2.24-11,16.9,16.9,0,0,1,6.61-7.65A19,19,0,0,1,60.25,17,19,19,0,0,1,70.42,19.7,17,17,0,0,1,77,27.35a26.52,26.52,0,0,1,2.24,11,26.55,26.55,0,0,1-2.21,11A17.2,17.2,0,0,1,70.52,57,18.86,18.86,0,0,1,60.25,59.71Zm0-4.31a11.13,11.13,0,0,0,9.53-4.59q3.36-4.59,3.36-12.51T69.75,25.87a11.18,11.18,0,0,0-9.5-4.55,11.17,11.17,0,0,0-9.49,4.55q-3.39,4.54-3.39,12.43t3.36,12.51A11.12,11.12,0,0,0,60.25,55.4Z" transform="translate(-41.24 -14.01)"/><path d="M90.9,58.69,79.8,28.85h5.42l8.67,23.22,9.17-23.22h5L96.31,58.69Z" transform="translate(-41.24 -14.01)"/><path d="M133.24,57.73a33.89,33.89,0,0,1-9.45,1.65q-7,0-11.1-4.68a16.42,16.42,0,0,1-4-11.06,18.55,18.55,0,0,1,1.79-8A12.85,12.85,0,0,1,115.11,30a12.3,12.3,0,0,1,6.78-1.85,10.39,10.39,0,0,1,8.37,3.71q3.12,3.72,3.12,11.11l0,1.64H114.17a15.41,15.41,0,0,0,1.74,6.11,9.13,9.13,0,0,0,3.43,3.33,11.05,11.05,0,0,0,5.45,1.2,19.74,19.74,0,0,0,3.34-.29,34.28,34.28,0,0,0,5.11-1.52ZM114.42,40.56H128q0-4.48-1.8-6.4a6,6,0,0,0-4.59-1.93,6.22,6.22,0,0,0-5,2.08A10.85,10.85,0,0,0,114.42,40.56Z" transform="translate(-41.24 -14.01)"/><path d="M139.55,58.69V28.85H145v5.58a11.91,11.91,0,0,1,4-4.63,9.44,9.44,0,0,1,5.34-1.64,11.73,11.73,0,0,1,1.73.14v5.06a7.84,7.84,0,0,0-2.47-.47,8,8,0,0,0-4.72,1.53A13.85,13.85,0,0,0,145,39V58.69Z" transform="translate(-41.24 -14.01)"/><path d="M158.67,57.65v-5a21.31,21.31,0,0,0,9.23,2.63,5.91,5.91,0,0,0,3.86-1.26,3.9,3.9,0,0,0,1.55-3.16,4,4,0,0,0-.77-2.32A8.12,8.12,0,0,0,169,46.29l-3.16-1.35a13.61,13.61,0,0,1-5.35-3.52,7.26,7.26,0,0,1-1.68-4.87,7.79,7.79,0,0,1,2.62-6q2.63-2.4,7.75-2.4a34.8,34.8,0,0,1,6.2.69l1.13.22v4.54a26.54,26.54,0,0,0-7.26-1.38,5.86,5.86,0,0,0-3.92,1.13A3.44,3.44,0,0,0,164,36a3.11,3.11,0,0,0,.88,2.17,8.72,8.72,0,0,0,3.08,2l2.62,1.1q5.25,2.22,6.69,4.4a8.45,8.45,0,0,1,1.43,4.73,8.3,8.3,0,0,1-1.34,4.54,8.82,8.82,0,0,1-3.92,3.27,13.81,13.81,0,0,1-5.79,1.18A30,30,0,0,1,158.67,57.65Z" transform="translate(-41.24 -14.01)"/><path d="M207.87,57.73a33.89,33.89,0,0,1-9.45,1.65q-7,0-11.1-4.68a16.42,16.42,0,0,1-4-11.06,18.55,18.55,0,0,1,1.78-8A13,13,0,0,1,189.73,30a12.36,12.36,0,0,1,6.79-1.85,10.4,10.4,0,0,1,8.37,3.71Q208,35.59,208,43l0,1.64H188.8a15.41,15.41,0,0,0,1.74,6.11A9.13,9.13,0,0,0,194,54.06a11,11,0,0,0,5.44,1.2,19.86,19.86,0,0,0,3.35-.29,34.28,34.28,0,0,0,5.11-1.52ZM189.05,40.56H202.6q0-4.48-1.8-6.4a6,6,0,0,0-4.6-1.93,6.23,6.23,0,0,0-5,2.08A10.78,10.78,0,0,0,189.05,40.56Z" transform="translate(-41.24 -14.01)"/><path d="M229.82,54.9A20,20,0,0,1,225,58.25a10.7,10.7,0,0,1-4.66,1.13,9.6,9.6,0,0,1-6-2.09,7.17,7.17,0,0,1-2.76-6.1,8.74,8.74,0,0,1,3.84-7.27q3.85-2.87,12.3-2.87H229V37.44a6.37,6.37,0,0,0-.59-3.13,3.9,3.9,0,0,0-1.83-1.53,7.77,7.77,0,0,0-3.09-.55,20.37,20.37,0,0,0-9.33,2.64V30.39a28.12,28.12,0,0,1,10.43-2.23,14.09,14.09,0,0,1,4.91.84,7.68,7.68,0,0,1,3.58,2.64q1.34,1.81,1.33,5.8V51a8.47,8.47,0,0,0,.36,3,2.64,2.64,0,0,0,2.5,1.61,7.76,7.76,0,0,0,1.05-.11l.38,3a9.26,9.26,0,0,1-4.07.88,4.88,4.88,0,0,1-2.85-1A5.66,5.66,0,0,1,229.82,54.9ZM229,52V44.24l-1.77-.05A14.72,14.72,0,0,0,220,45.83a5,5,0,0,0-3,4.48,4.33,4.33,0,0,0,1.45,3.3A4.79,4.79,0,0,0,221.84,55a9,9,0,0,0,3.53-.76A15.25,15.25,0,0,0,229,52Z" transform="translate(-41.24 -14.01)"/><path class="cls-1" d="M272.84,56.61a29.8,29.8,0,0,1-4.47,1.91,24.66,24.66,0,0,1-4.08.9,34.43,34.43,0,0,1-4.59.29q-10.27,0-15-6.07t-4.77-15.25q0-9.37,5-15.38T260,17a55,55,0,0,1,12.77,1.78v5.42a62.93,62.93,0,0,0-8.48-2.5,26.51,26.51,0,0,0-4.41-.39q-7.3,0-10.59,5A21.54,21.54,0,0,0,246,38.44q0,7.5,3.78,12.13t10.7,4.63a21.47,21.47,0,0,0,3.83-.34,24.15,24.15,0,0,0,3.81-1,34,34,0,0,0,4.7-2.18Z" transform="translate(-41.24 -14.01)"/><path class="cls-1" d="M280.94,58.69V18h5.68L307,49.41V18h5V58.69h-5.66L285.91,27.32V58.69Z" transform="translate(-41.24 -14.01)"/></svg>